<svg xmlns="http://www.w3.org/2000/svg" viewBox="0 0 64 64" fill="none" role="img" aria-label="Kere">
  
  <path d="M32 6c12.5 0 23 8.6 23 21.5C55 41 44.7 53 32 58 19.3 53 9 41 9 27.5 9 14.6 19.5 6 32 6Z" stroke="#0E7C86" stroke-width="3" fill="none"></path>
  <path d="M32 15c8.4 0 15 5.6 15 13.7C47 37 40 45 32 48.5 24 45 17 37 17 28.7 17 20.6 23.6 15 32 15Z" stroke="#0E7C86" stroke-width="2.4" fill="none" opacity="0.62"></path>
  <path d="M32 24c4.3 0 7.6 2.8 7.6 6.9 0 4.4-3.6 8.3-7.6 10-4-1.7-7.6-5.6-7.6-10C24.4 26.8 27.7 24 32 24Z" fill="#36B7A8" opacity="0.28"></path>
  <circle cx="32" cy="31" r="4.4" fill="#F2A516"></circle>
</svg>